<svg width="32" height="33" viewBox="0 0 32 33" fill="none" xmlns="http://www.w3.org/2000/svg">
<path d="M6 4.5H26C28.206 4.5 30 6.294 30 8.5V20.5C30 22.706 28.206 24.5 26 24.5H13.24C14.1037 23.7565 14.7972 22.8359 15.2734 21.8006C15.7497 20.7653 15.9975 19.6396 16 18.5C15.9975 17.3604 15.7497 16.2347 15.2734 15.1994C14.7972 14.1641 14.1037 13.2435 13.24 12.5H23C23.2652 12.5 23.5196 12.3946 23.7071 12.2071C23.8946 12.0196 24 11.7652 24 11.5C24 11.2348 23.8946 10.9804 23.7071 10.7929C23.5196 10.6054 23.2652 10.5 23 10.5H8C6.86041 10.5025 5.73473 10.7503 4.69942 11.2266C3.66412 11.7028 2.74346 12.3963 2 13.26V8.5C2 6.294 3.794 4.5 6 4.5ZM19 18.5H23C23.2652 18.5 23.5196 18.3946 23.7071 18.2071C23.8946 18.0196 24 17.7652 24 17.5C24 17.2348 23.8946 16.9804 23.7071 16.7929C23.5196 16.6054 23.2652 16.5 23 16.5H19C18.7348 16.5 18.4804 16.6054 18.2929 16.7929C18.1054 16.9804 18 17.2348 18 17.5C18 17.7652 18.1054 18.0196 18.2929 18.2071C18.4804 18.3946 18.7348 18.5 19 18.5ZM8 24.5C9.5913 24.5 11.1174 23.8679 12.2426 22.7426C13.3679 21.6174 14 20.0913 14 18.5C14 16.9087 13.3679 15.3826 12.2426 14.2574C11.1174 13.1321 9.5913 12.5 8 12.5C6.4087 12.5 4.88258 13.1321 3.75736 14.2574C2.63214 15.3826 2 16.9087 2 18.5C2 20.0913 2.63214 21.6174 3.75736 22.7426C4.88258 23.8679 6.4087 24.5 8 24.5ZM4 29.5V25.386C5.21073 26.1058 6.59151 26.4896 8 26.498C9.464 26.498 10.818 26.074 12 25.386V29.498C12.0001 29.679 11.951 29.8567 11.858 30.012C11.765 30.1674 11.6316 30.2945 11.472 30.38C11.3126 30.4655 11.133 30.5062 10.9524 30.4978C10.7717 30.4893 10.5967 30.432 10.446 30.332L8 28.7L5.554 30.33C5.40401 30.4323 5.22887 30.4915 5.04759 30.5013C4.86631 30.5111 4.68581 30.4711 4.52567 30.3856C4.36553 30.3 4.23188 30.1723 4.13921 30.0162C4.04654 29.8601 3.9984 29.6815 4 29.5Z" fill="#00FF99"/>
</svg>
