<svg width="32" height="32" viewBox="0 0 32 32" fill="none" xmlns="http://www.w3.org/2000/svg">
<g clip-path="url(#clip0_210_6416)">
<path d="M16 1.33333C12.1513 1.29422 8.44448 2.78481 5.69429 5.4775C2.9441 8.17019 1.37553 11.8446 1.33331 15.6933C1.34814 18.7349 2.32657 21.6935 4.12806 24.1442C5.92955 26.5949 8.46141 28.4116 11.36 29.3333C12.0933 29.4667 12.36 29.0267 12.36 28.64C12.36 28.2533 12.36 27.4 12.36 26.2C8.27998 27.0667 7.41331 24.28 7.41331 24.28C7.14171 23.4052 6.56429 22.6574 5.78665 22.1733C4.45331 21.2933 5.89331 21.3067 5.89331 21.3067C6.35418 21.3683 6.79512 21.5334 7.18306 21.7898C7.571 22.0461 7.89587 22.3869 8.13331 22.7867C8.54709 23.5042 9.22602 24.0305 10.024 24.2525C10.822 24.4744 11.6752 24.3742 12.4 23.9733C12.4745 23.2432 12.8052 22.563 13.3333 22.0533C10.08 21.6933 6.66665 20.4667 6.66665 14.96C6.63755 13.5236 7.1683 12.1321 8.14665 11.08C7.70108 9.84676 7.75369 8.48842 8.29331 7.29333C8.29331 7.29333 9.53331 6.90667 12.2933 8.76C14.6958 8.11978 17.2241 8.11978 19.6266 8.76C22.4266 6.90667 23.6266 7.29333 23.6266 7.29333C24.1663 8.48842 24.2189 9.84676 23.7733 11.08C24.7744 12.1129 25.3339 13.4949 25.3333 14.9333C25.3333 20.4533 21.8933 21.6667 18.6666 22.0267C19.02 22.3697 19.2929 22.7867 19.4658 23.2478C19.6387 23.7089 19.7073 24.2026 19.6666 24.6933V28.6267C19.6666 28.6267 19.9333 29.4667 20.6666 29.32C23.557 28.3925 26.0803 26.5754 27.8762 24.1282C29.6721 21.681 30.6488 18.7288 30.6666 15.6933C30.6244 11.8446 29.0559 8.17019 26.3057 5.4775C23.5555 2.78481 19.8487 1.29422 16 1.33333Z" fill="#EAEAEA"/>
</g>
<defs>
<clipPath id="clip0_210_6416">
<rect width="32" height="32" fill="white"/>
</clipPath>
</defs>
</svg>
