<svg width="32" height="32" viewBox="0 0 32 32" fill="none" xmlns="http://www.w3.org/2000/svg">
<g clip-path="url(#clip0_210_6419)">
<path d="M29 0.75H3C2.41008 0.743996 1.84187 0.972261 1.42005 1.38471C0.998227 1.79715 0.757253 2.36009 0.75 2.95V29.055C0.758564 29.644 1.00012 30.2057 1.42179 30.6171C1.84347 31.0284 2.41093 31.256 3 31.25H29C29.59 31.2547 30.1578 31.0256 30.5794 30.6129C31.001 30.2002 31.2421 29.6374 31.25 29.0475V2.9425C31.2395 2.35432 30.9972 1.79407 30.5759 1.38351C30.1546 0.972961 29.5883 0.745295 29 0.75Z" fill="#EAEAEA"/>
<path d="M5.26503 12.1825H9.79253V26.75H5.26503V12.1825ZM7.53003 4.9325C8.04931 4.9325 8.55693 5.08652 8.98866 5.37507C9.42039 5.66361 9.75685 6.07373 9.95545 6.55353C10.1541 7.03333 10.2059 7.56126 10.1044 8.07053C10.0029 8.5798 9.75266 9.04753 9.3853 9.41454C9.01794 9.78155 8.54997 10.0314 8.04061 10.1324C7.53124 10.2334 7.00337 10.181 6.52375 9.98196C6.04414 9.7829 5.63434 9.44606 5.34621 9.01405C5.05807 8.58204 4.90454 8.07428 4.90503 7.555C4.90569 6.85924 5.18255 6.1922 5.67476 5.70046C6.16697 5.20872 6.83427 4.9325 7.53003 4.9325Z" fill="#333333"/>
<path d="M12.6325 12.1825H16.9725V14.1825H17.0325C17.6375 13.0375 19.1125 11.83 21.315 11.83C25.9 11.82 26.75 14.8375 26.75 18.75V26.75H22.2225V19.6625C22.2225 17.975 22.1925 15.8025 19.87 15.8025C17.5475 15.8025 17.1525 17.6425 17.1525 19.5525V26.75H12.6325V12.1825Z" fill="#333333"/>
</g>
<defs>
<clipPath id="clip0_210_6419">
<rect width="32" height="32" fill="white"/>
</clipPath>
</defs>
</svg>
