<svg width="64" height="73" viewBox="0 0 64 73" fill="none" xmlns="http://www.w3.org/2000/svg">
<g clip-path="url(#clip0_421_508)">
<g filter="url(#filter0_d_421_508)">
<path d="M63.5 36.5065C63.5 32.3206 58.2735 28.3537 50.2605 25.8937C52.1097 17.7023 51.2878 11.1853 47.6665 9.09876C46.8318 8.60934 45.8559 8.3775 44.7901 8.3775V11.2496C45.3808 11.2496 45.8559 11.3656 46.254 11.5845C48.0004 12.5891 48.7581 16.4144 48.1674 21.3344C48.0261 22.545 47.7949 23.8201 47.5124 25.121C44.9955 24.5027 42.2475 24.0262 39.3581 23.7171C37.6245 21.3344 35.8267 19.1706 34.0161 17.2773C38.2024 13.3748 42.1319 11.2368 44.8029 11.2368V8.36462C41.2715 8.36462 36.6486 10.889 31.9743 15.2681C27.3 10.9148 22.6771 8.41614 19.1457 8.41614V11.2883C21.8039 11.2883 25.7462 13.4134 29.9325 17.2902C28.1347 19.1835 26.3369 21.3344 24.629 23.7171C21.7269 24.0262 18.9788 24.5027 16.4619 25.1338C16.1665 23.8459 15.9482 22.5966 15.7941 21.3988C15.1906 16.4788 15.9354 12.6535 17.669 11.636C18.0542 11.4042 18.555 11.3012 19.1457 11.3012V8.42902C18.0671 8.42902 17.0911 8.66085 16.2436 9.15028C12.6351 11.2368 11.8261 17.741 13.6881 25.9066C5.70077 28.3795 0.5 32.3335 0.5 36.5065C0.5 40.6924 5.72646 44.6593 13.7395 47.1193C11.8903 55.3107 12.7122 61.8277 16.3335 63.9142C17.1682 64.4037 18.1441 64.6355 19.2228 64.6355C22.7542 64.6355 27.3771 62.1111 32.0514 57.732C36.7256 62.0853 41.3486 64.584 44.8799 64.584C45.9586 64.584 46.9346 64.3521 47.7821 63.8627C51.3905 61.7762 52.1996 55.272 50.3375 47.1064C58.2992 44.6464 63.5 40.6795 63.5 36.5065ZM46.7805 27.9158C46.3053 29.5773 45.7146 31.2903 45.0469 33.0033C44.5204 31.9729 43.9682 30.9425 43.3647 29.9122C42.774 28.8818 42.1447 27.8772 41.5155 26.8983C43.339 27.1688 45.0982 27.5037 46.7805 27.9158ZM40.8991 41.6326C39.8975 43.3713 38.8702 45.0199 37.8043 46.5526C35.891 46.72 33.9519 46.8102 32 46.8102C30.0609 46.8102 28.1219 46.72 26.2214 46.5654C25.1555 45.0328 24.1154 43.3971 23.1137 41.6712C22.1378 39.984 21.2517 38.271 20.4427 36.5451C21.2389 34.8193 22.1378 33.0934 23.1009 31.4062C24.1025 29.6674 25.1298 28.0189 26.1957 26.4862C28.1091 26.3188 30.0481 26.2286 32 26.2286C33.9391 26.2286 35.8781 26.3188 37.7786 26.4733C38.8445 28.006 39.8846 29.6417 40.8863 31.3675C41.8622 33.0548 42.7483 34.7678 43.5573 36.4936C42.7483 38.2195 41.8622 39.9453 40.8991 41.6326ZM45.0469 39.9582C45.7403 41.6841 46.331 43.41 46.819 45.0843C45.1368 45.4964 43.3647 45.8442 41.5283 46.1147C42.1576 45.1229 42.7868 44.1054 43.3775 43.0622C43.9682 42.0318 44.5204 40.9886 45.0469 39.9582ZM32.0257 53.7007C30.8314 52.4643 29.6372 51.0862 28.4558 49.5793C29.6115 49.6308 30.7929 49.6694 31.9872 49.6694C33.1943 49.6694 34.3885 49.6437 35.5571 49.5793C34.4013 51.0862 33.2071 52.4643 32.0257 53.7007ZM22.4717 46.1147C20.6482 45.8442 18.8889 45.5093 17.2067 45.0972C17.6818 43.4357 18.2725 41.7227 18.9403 40.0097C19.4668 41.0401 20.019 42.0705 20.6225 43.1008C21.2261 44.1312 21.8424 45.1358 22.4717 46.1147ZM31.9615 19.3123C33.1557 20.5487 34.35 21.9268 35.5314 23.4337C34.3757 23.3822 33.1943 23.3436 32 23.3436C30.7929 23.3436 29.5987 23.3693 28.4301 23.4337C29.5858 21.9268 30.7801 20.5487 31.9615 19.3123ZM22.4588 26.8983C21.8296 27.8901 21.2004 28.9075 20.6097 29.9508C20.019 30.9812 19.4668 32.0115 18.9403 33.0419C18.2468 31.316 17.6561 29.5902 17.1682 27.9158C18.8504 27.5166 20.6225 27.1688 22.4588 26.8983ZM10.8373 43.0236C6.29148 41.0787 3.35079 38.5286 3.35079 36.5065C3.35079 34.4844 6.29148 31.9214 10.8373 29.9894C11.9417 29.5129 13.1488 29.0879 14.3944 28.6886C15.1264 31.213 16.0895 33.8404 17.2837 36.5323C16.1023 39.2112 15.1521 41.8258 14.4329 44.3373C13.1616 43.938 11.9545 43.5001 10.8373 43.0236ZM17.746 61.4285C15.9996 60.4239 15.242 56.5986 15.8327 51.6786C15.9739 50.468 16.2051 49.1929 16.4876 47.892C19.0045 48.5103 21.7526 48.9868 24.6419 49.2959C26.3755 51.6786 28.1733 53.8424 29.9839 55.7357C25.7976 59.6382 21.8681 61.7762 19.1971 61.7762C18.6192 61.7633 18.1313 61.6474 17.746 61.4285ZM48.2059 51.6142C48.8094 56.5342 48.0646 60.3595 46.331 61.377C45.9458 61.6088 45.445 61.7118 44.8543 61.7118C42.1961 61.7118 38.2538 59.5867 34.0675 55.7099C35.8653 53.8166 37.6631 51.6658 39.371 49.283C42.2731 48.9739 45.0212 48.4974 47.5381 47.8663C47.8335 49.1671 48.0646 50.4164 48.2059 51.6142ZM53.1498 43.0236C52.0455 43.5001 50.8384 43.9251 49.5927 44.3244C48.8608 41.8 47.8977 39.1726 46.7034 36.4807C47.8848 33.8018 48.8351 31.1872 49.5542 28.6757C50.8255 29.075 52.0326 29.5129 53.1627 29.9894C57.7085 31.9342 60.6492 34.4844 60.6492 36.5065C60.6364 38.5286 57.6957 41.0916 53.1498 43.0236Z" fill="#61DAFB"/>
</g>
<g filter="url(#filter1_d_421_508)">
<path d="M31.9871 42.3924C35.2282 42.3924 37.8557 39.7572 37.8557 36.5064C37.8557 33.2557 35.2282 30.6205 31.9871 30.6205C28.746 30.6205 26.1186 33.2557 26.1186 36.5064C26.1186 39.7572 28.746 42.3924 31.9871 42.3924Z" fill="#61DAFB"/>
</g>
</g>
<defs>
<filter id="filter0_d_421_508" x="-3.5" y="8.36462" width="71" height="64.2709" filterUnits="userSpaceOnUse" color-interpolation-filters="sRGB">
<feFlood flood-opacity="0" result="BackgroundImageFix"/>
<feColorMatrix in="SourceAlpha" type="matrix" values="0 0 0 0 0 0 0 0 0 0 0 0 0 0 0 0 0 0 127 0" result="hardAlpha"/>
<feOffset dy="4"/>
<feGaussianBlur stdDeviation="2"/>
<feComposite in2="hardAlpha" operator="out"/>
<feColorMatrix type="matrix" values="0 0 0 0 0 0 0 0 0 0 0 0 0 0 0 0 0 0 0.25 0"/>
<feBlend mode="normal" in2="BackgroundImageFix" result="effect1_dropShadow_421_508"/>
<feBlend mode="normal" in="SourceGraphic" in2="effect1_dropShadow_421_508" result="shape"/>
</filter>
<filter id="filter1_d_421_508" x="22.1186" y="30.6205" width="19.7371" height="19.772" filterUnits="userSpaceOnUse" color-interpolation-filters="sRGB">
<feFlood flood-opacity="0" result="BackgroundImageFix"/>
<feColorMatrix in="SourceAlpha" type="matrix" values="0 0 0 0 0 0 0 0 0 0 0 0 0 0 0 0 0 0 127 0" result="hardAlpha"/>
<feOffset dy="4"/>
<feGaussianBlur stdDeviation="2"/>
<feComposite in2="hardAlpha" operator="out"/>
<feColorMatrix type="matrix" values="0 0 0 0 0 0 0 0 0 0 0 0 0 0 0 0 0 0 0.25 0"/>
<feBlend mode="normal" in2="BackgroundImageFix" result="effect1_dropShadow_421_508"/>
<feBlend mode="normal" in="SourceGraphic" in2="effect1_dropShadow_421_508" result="shape"/>
</filter>
<clipPath id="clip0_421_508">
<rect width="63" height="72" fill="white" transform="translate(0.5 0.5)"/>
</clipPath>
</defs>
</svg>
