<svg width="84" height="81" viewBox="0 0 84 81" fill="none" xmlns="http://www.w3.org/2000/svg">
<g filter="url(#filter0_d_421_518)">
<path d="M56.66 50.584C59.4646 50.2954 61.5923 47.8925 61.4955 45.0086C61.399 42.125 58.9809 39.8179 56.0796 39.8179H55.8863C52.8879 39.9141 50.5669 42.4132 50.6637 45.393C50.7605 46.835 51.3406 48.0846 52.211 48.9497C48.9228 55.3902 43.8938 60.1002 36.3502 64.0413C31.2243 66.7329 25.9052 67.6942 20.5861 67.0214C16.2339 66.4446 12.8489 64.5223 10.7209 61.3498C7.62632 56.6398 7.33628 51.545 9.94759 46.4505C11.7852 42.7977 14.6863 40.1062 16.524 38.7604C16.1371 37.5108 15.5567 35.3962 15.2667 33.8583C1.24322 43.9514 2.69404 57.6011 6.94945 64.0413C10.1409 68.8478 16.6207 71.8277 23.7775 71.8277C25.7117 71.8277 27.6458 71.6353 29.5802 71.1549C41.9596 68.7517 51.3409 61.446 56.66 50.584ZM73.6816 38.6645C66.3313 30.1093 55.4995 25.3993 43.1201 25.3993H41.5728C40.7024 23.669 38.8647 22.5154 36.8338 22.5154H36.6402C33.6424 22.6116 31.3214 25.1107 31.4179 28.0908C31.5147 30.9744 33.9324 33.2815 36.8338 33.2815H37.027C39.1547 33.1853 40.9924 31.8395 41.7661 30.0131H43.5069C50.8573 30.0131 57.8205 32.1278 64.1071 36.2613C68.9426 39.4334 72.4243 43.5669 74.3585 48.5652C76.0026 52.6025 75.9058 56.5436 74.1649 59.9082C71.4571 65.0026 66.9117 67.7904 60.9154 67.7904C57.0468 67.7904 53.3718 66.6367 51.4374 65.7716C50.3737 66.7329 48.4392 68.2707 47.0852 69.2323C51.2441 71.1546 55.4995 72.2121 59.5613 72.2121C68.8458 72.2121 75.7125 67.1173 78.3238 62.0229C81.1284 56.4474 80.9349 46.835 73.6816 38.6645ZM24.5512 52.2178C24.6479 55.1017 27.0657 57.4084 29.9671 57.4084H30.1606C33.1588 57.3125 35.4797 54.8131 35.3829 51.8333C35.2865 48.9494 32.8684 46.6426 29.9671 46.6426H29.7738C29.5802 46.6426 29.2899 46.6426 29.0969 46.7385C25.1316 40.2021 23.4875 33.0891 24.0679 25.399C24.4544 19.6315 26.3888 14.6329 29.7738 10.4994C32.5784 6.94276 37.9943 5.21253 41.6696 5.11664C51.921 4.92426 56.2729 17.6127 56.5632 22.7075C57.8205 22.9957 59.9482 23.6688 61.399 24.1494C60.2382 8.57738 50.5669 0.502808 41.2827 0.502808C32.5784 0.502808 24.5512 6.75097 21.3595 15.9789C16.9108 28.2829 19.8122 40.1062 25.228 49.4303C24.7447 50.1031 24.4544 51.1603 24.5512 52.2178Z" fill="#764ABC"/>
</g>
<defs>
<filter id="filter0_d_421_518" x="0" y="0.502808" width="84" height="79.7094" filterUnits="userSpaceOnUse" color-interpolation-filters="sRGB">
<feFlood flood-opacity="0" result="BackgroundImageFix"/>
<feColorMatrix in="SourceAlpha" type="matrix" values="0 0 0 0 0 0 0 0 0 0 0 0 0 0 0 0 0 0 127 0" result="hardAlpha"/>
<feOffset dy="4"/>
<feGaussianBlur stdDeviation="2"/>
<feComposite in2="hardAlpha" operator="out"/>
<feColorMatrix type="matrix" values="0 0 0 0 0 0 0 0 0 0 0 0 0 0 0 0 0 0 0.25 0"/>
<feBlend mode="normal" in2="BackgroundImageFix" result="effect1_dropShadow_421_518"/>
<feBlend mode="normal" in="SourceGraphic" in2="effect1_dropShadow_421_518" result="shape"/>
</filter>
</defs>
</svg>
