<svg width="32" height="33" viewBox="0 0 32 33" fill="none" xmlns="http://www.w3.org/2000/svg">
<path fill-rule="evenodd" clip-rule="evenodd" d="M16.4734 4.90268C16.1497 4.8093 15.8063 4.8093 15.4827 4.90268C14.7907 5.10001 14.0934 5.28134 13.392 5.46401C10.268 6.28001 6.82669 7.18001 3.88403 9.58001L2.49736 10.7133C1.39069 11.616 1.39069 13.384 2.49736 14.2867L3.86269 15.3987C4.82775 16.1809 5.88062 16.8481 7.00003 17.3867V23.5587C7.00006 24.2969 7.22294 25.018 7.63949 25.6274C8.05605 26.2369 8.64689 26.7065 9.33469 26.9747L14.668 29.0547C15.5246 29.3887 16.4754 29.3887 17.332 29.0547L22.6654 26.9747C23.3532 26.7065 23.944 26.2369 24.3606 25.6274C24.7771 25.018 25 24.2969 25 23.5587V17.3987C26.1115 16.8615 27.1572 16.1976 28.116 15.42L28.3334 15.2427V21.8333C28.3334 22.0986 28.4387 22.3529 28.6263 22.5405C28.8138 22.728 29.0681 22.8333 29.3334 22.8333C29.5986 22.8333 29.8529 22.728 30.0405 22.5405C30.228 22.3529 30.3334 22.0986 30.3334 21.8333V12.5C30.3334 11.8333 30.056 11.164 29.5027 10.7133L28.1374 9.60134C25.172 7.18801 21.5867 6.25201 18.5587 5.46268C17.86 5.28001 17.164 5.09868 16.4734 4.90268ZM11.0667 17.5827C10.9462 17.5303 10.8166 17.5022 10.6853 17.4999C10.554 17.4977 10.4235 17.5213 10.3013 17.5695C10.1791 17.6176 10.0676 17.6894 9.97308 17.7806C9.87861 17.8719 9.80305 17.9809 9.75069 18.1013C9.69834 18.2218 9.67023 18.3514 9.66796 18.4827C9.66569 18.6141 9.68931 18.7446 9.73747 18.8668C9.78564 18.989 9.8574 19.1005 9.94866 19.195C10.0399 19.2894 10.1489 19.365 10.2694 19.4173C11.9734 20.1573 13.736 20.764 15.544 21.228C15.8587 21.308 16.1894 21.308 16.504 21.228C18.3031 20.7659 20.0621 20.16 21.764 19.416C21.9989 19.3047 22.1812 19.1064 22.2724 18.863C22.3635 18.6196 22.3563 18.3503 22.2523 18.1121C22.1483 17.8739 21.9556 17.6856 21.7152 17.587C21.4747 17.4885 21.2053 17.4874 20.964 17.584C19.368 18.28 17.7174 18.8507 16.024 19.2867C14.3294 18.8497 12.6718 18.2799 11.0667 17.5827Z" fill="#00FF99"/>
</svg>
